# xmcd
#
# Track frame offsets:
#	150
#	18840
#	38965
#	54635
#	78710
#	96995
#	115880
#	137820
#	154750
#	180035
#	195327
#	218815
#
# Disc length: 3123 seconds
#
# Revision: 0
# Processed by: cddbd v1.5.1PL0 Copyright (c) Steve Scherf et al.
# Submitted via: dBpowerAMP V4.0
#
DISCID=990c310c
DTITLE=Russell - Livin' For The Moment
DYEAR=1900
DGENRE=Country
TTITLE0=Rock'n Roll Heroes
TTITLE1=Sail Away
TTITLE2=The Road
TTITLE3=Stranger In My Song
TTITLE4=For The Lady With Bright Green Eyes
TTITLE5=Can Good Bless The War
TTITLE6=Judy's Song
TTITLE7=A Disco Ain't No Place For A Cowboy
TTITLE8=The Dream
TTITLE9=Feelin' High
TTITLE10=The Space In The Wall
TTITLE11=Livin' For The Moment
EXTD=
EXTT0=
EXTT1=
EXTT2=
EXTT3=
EXTT4=
EXTT5=
EXTT6=
EXTT7=
EXTT8=
EXTT9=
EXTT10=
EXTT11=
PLAYORDER=
